# xmcd
#
# Track frame offsets:
#	150
#	12642
#	25108
#	36523
#	50123
#	64998
#	89086
#	101917
#	114735
#	132395
#	145715
#	168076
#	179735
#	194225
#	207418
#	216527
#	228287
#	239753
#
# Disc length: 3396
#
# Revision: 1
# Processed by: cddbd v1.5.1PL0 Copyright (c) Steve Scherf et al.
# Submitted via: CDex 1.51
# Normalized: r0:DSETVAR1,TDELIM( - )
#
DISCID=2b0d4212
DTITLE=Various Artist - Blues: The Essential Album
DYEAR=2004
DGENRE=Blues
TTITLE0=Memphis Minnie - Nothing in Ramblin'
TTITLE1=Robert Johnson - Travelling Riverside Blues
TTITLE2=Big Joe Williams - She Left Me A Mule
TTITLE3=Elmore James - Standing at the Crossroads
TTITLE4=Muddy Waters - Still a Fool
TTITLE5=Mississippi Fred McDowell - 61 Highway
TTITLE6=Willie Love - V8 Ford
TTITLE7=Big Mama Thornton - Hound Dog
TTITLE8=Lightnin' Hopkins - Love Like a Hydrant
TTITLE9=Son House - This War Will Last for Years
TTITLE10=Robert Nighthawk - Cheating and Lying Blues
TTITLE11=Sonny Boy Williamson - Keep it to Yourself
TTITLE12=Corey Harris - High Fever Blues
TTITLE13=Big Maceo - Worried Life Blues
TTITLE14=Robert Pete Williams - Come Here Baby
TTITLE15=R L Burnside - See My Jumper Hangin' Out on the Line
TTITLE16=Leadbelly - Rock Island Line
TTITLE17=John Lee Hooker - Sittin' Here Thinkin'
EXTD=YEAR: 2004
EXTT0=
EXTT1=
EXTT2=
EXTT3=
EXTT4=
EXTT5=
EXTT6=
EXTT7=
EXTT8=
EXTT9=
EXTT10=
EXTT11=
EXTT12=
EXTT13=
EXTT14=
EXTT15=
EXTT16=
EXTT17=
PLAYORDER=
